<svg height="20" viewBox="0 0 20 20" width="20" xmlns="http://www.w3.org/2000/svg" xmlns:xlink="http://www.w3.org/1999/xlink"><linearGradient id="a" x1="19.677215%" x2="69.894515%" y1="81.133349%" y2="47.673271%"><stop offset="0" stop-color="#1a237e" stop-opacity=".4"/><stop offset="1" stop-color="#1a237e" stop-opacity="0"/></linearGradient><radialGradient id="b" cx="2.809341%" cy="6.815707%" gradientTransform="matrix(1 0 0 .8125 0 .012779)" r="151.492877%"><stop offset="0" stop-color="#fff" stop-opacity=".1"/><stop offset="1" stop-color="#fff" stop-opacity="0"/></radialGradient><mask id="c" fill="#fff"><path d="m12.9907143 7.38461538-4.32714287 4.30307692 4.32714287 4.3030769h-4.94464287l-4.32869048-4.3030769 4.32869048-4.30307692zm-4.94464287-7.37384615-8.03678572 7.98923077 2.47309524 2.4584615 10.50833335-10.44769227z" fill="#fff" fill-rule="evenodd"/></mask><mask id="d" fill="#fff"><path d="m12.9907143 7.38461538-4.32714287 4.30307692 4.32714287 4.3030769h-4.94464287l-4.32869048-4.3030769 4.32869048-4.30307692zm-4.94464287-7.37384615-8.03678572 7.98923077 2.47309524 2.4584615 10.50833335-10.44769227z" fill="#fff" fill-rule="evenodd"/></mask><mask id="e" fill="#fff"><path d="m12.9907143 7.38461538-4.32714287 4.30307692 4.32714287 4.3030769h-4.94464287l-4.32869048-4.3030769 4.32869048-4.30307692zm-4.94464287-7.37384615-8.03678572 7.98923077 2.47309524 2.4584615 10.50833335-10.44769227z" fill="#fff" fill-rule="evenodd"/></mask><mask id="f" fill="#fff"><path d="m12.9907143 7.38461538-4.32714287 4.30307692 4.32714287 4.3030769h-4.94464287l-4.32869048-4.3030769 4.32869048-4.30307692zm-4.94464287-7.37384615-8.03678572 7.98923077 2.47309524 2.4584615 10.50833335-10.44769227z" fill="#fff" fill-rule="evenodd"/></mask><mask id="g" fill="#fff"><path d="m12.9907143 7.38461538-4.32714287 4.30307692 4.32714287 4.3030769h-4.94464287l-4.32869048-4.3030769 4.32869048-4.30307692zm-4.94464287-7.37384615-8.03678572 7.98923077 2.47309524 2.4584615 10.50833335-10.44769227z" fill="#fff" fill-rule="evenodd"/></mask><g fill="none" fill-rule="nonzero" transform="translate(4 2)"><path d="m3.71892857 11.6876923 2.47154762 2.4584615 6.80023811-6.76153842h-4.94464287z" fill="#39cefd" mask="url(#c)"/><path d="m8.04607143.01076923h4.94464287l-10.50833335 10.44769227-2.47309524-2.4584615z" fill="#39cefd" mask="url(#d)"/><path d="m6.19047619 14.1461538 1.85559524 1.843077h4.94464287l-4.32714287-4.3015385z" fill="#03569b" mask="url(#e)"/><path d="m9.85833333 12.8830769-1.1947619-1.1953846-2.47309524 2.4584615z" fill="url(#a)" mask="url(#f)"/><path d="m3.71865 11.6868462 2.47315714-2.45853851 2.47331191 2.45853851-2.47331191 2.4585384z" fill="#16b9fd" mask="url(#g)"/><path d="m13 7.383075-4.33333333 4.3084625 4.33333333 4.3084625h-4.95171674l-4.33488316-4.3084625 4.33488316-4.3084625zm-4.95171674-7.383075-8.04828326 7.99922981 2.47663329 2.46153849 10.52336671-10.4607683z" fill="url(#b)"/></g></svg>