<?xml version="1.0" encoding="UTF-8"?>
<svg width="40px" height="40px" viewBox="0 0 40 40" version="1.1" xmlns="http://www.w3.org/2000/svg" xmlns:xlink="http://www.w3.org/1999/xlink">
    <title>Artboard</title>
    <g id="Artboard" stroke="none" stroke-width="1" fill="none" fill-rule="evenodd">
        <g id="pluginIcon" transform="translate(0.900000, 0.600000)" fill="#009AC7" fill-rule="nonzero">
            <path d="M38.07,14.87 L38.07,0 L31.12,2.53 C30.4958602,2.73408827 30.0996863,3.34711523 30.17,4 L30.17,11 L3.55271368e-15,0 L3.55271368e-15,8.41 L30.17,19.41 L38.07,22.29 L38.07,14.89 L38.07,14.87 Z" id="Path"></path>
            <path d="M30.17,27.8 L0.5,17 L0.14,16.87 L0,16.82 L0,24.2 L0,39.07 L6.94,36.54 C7.55148336,36.365358 7.96445038,35.7954635 7.94,35.16 L7.94,28.09 L38.11,39.09 L38.11,30.68 L32.33,28.57 L30.17,27.8 Z" id="Path"></path>
        </g>
    </g>
</svg>