<svg height="20" viewBox="0 0 512 512" width="20" xmlns="http://www.w3.org/2000/svg" xmlns:xlink="http://www.w3.org/1999/xlink"><linearGradient id="a"><stop offset="0" stop-color="#00a1e6"/><stop offset="1" stop-color="#65d9ff"/></linearGradient><linearGradient id="b" x1="69.755781%" x2="-3.398409%" xlink:href="#a" y1="47.879226%" y2="58.520027%"/><linearGradient id="c"><stop offset="0" stop-color="#667684"/><stop offset="1" stop-color="#667684"/></linearGradient><linearGradient id="d" x1="36.714594%" x2="45.978021%" xlink:href="#c" y1="18.078646%" y2="57.039072%"/><linearGradient id="e" x1="50.585353%" x2="46.353139%" xlink:href="#a" y1="33.362739%" y2="97.810501%"/><linearGradient id="f" x1="13.960527%" x2="61.418519%" xlink:href="#c" y1="54.286638%" y2="51.273851%"/><linearGradient id="g" x1="35.851606%" x2="92.809064%" xlink:href="#a" y1="48.462361%" y2="63.587517%"/><linearGradient id="h" x1="32.127364%" x2="44.796704%" xlink:href="#c" y1="82.750105%" y2="34.037546%"/><linearGradient id="i" x1="49.023214%" x2="77.227679%" xlink:href="#a" y1="61.738624%" y2="12.634741%"/><linearGradient id="j" x1="71.214322%" x2="45.034064%" xlink:href="#c" y1="73.810189%" y2="50.422988%"/><linearGradient id="k" x1="58.878402%" x2="19.849872%" xlink:href="#a" y1="61.061366%" y2="-3.00818%"/><linearGradient id="l" x1="78.106738%" x2="46.648275%" xlink:href="#c" y1="33.142836%" y2="48.283847%"/><mask id="m" fill="#fff"><path d="m76.727 0c-3.34 0-6.295 1.636-8.116 4.146l-67.358 92.719c-.795 1.085-1.253 2.436-1.253 3.884 0 3.621 2.935 6.558 6.557 6.558h73.392c25.258 0 41.554-4.325 54.366-15.077l21.101-17.706.002-74.524z" fill="#fff" fill-rule="evenodd"/></mask><mask id="n" fill="#fff"><path d="m12.758 104.773c10.659-2.336 19.143-6.385 26.486-12.545l18.446-15.477c1.053-3.898 1.929-7.884 2.657-11.937l.005-64.811-60.352-.003c13.988 31.096 24.868 69.35 12.758 104.773" fill="#fff" fill-rule="evenodd"/></mask><mask id="o" fill="#fff"><path d="m36.914.26635087c2.15-.712 4.586.025 5.991 1.953l57.839 79.63900003c3.411 4.695 2.572 11.179-1.784 14.868l-98.96 83.0380001c13.972-11.724 21.103-35.988 21.103-61.397v-109.06400013c0-2.383 1.561-4.412 3.718-5.101z" fill="#fff" fill-rule="evenodd"/></mask><mask id="p" fill="#fff"><path d="m21.103 39.826c-.036 25.337-7.167 49.508-21.103 61.202l98.96-83.037c4.356-3.69 5.194-10.174 1.783-14.869l-2.267-3.122c-26.159 13.521-51.609 26.686-77.373 39.826" fill="#fff" fill-rule="evenodd"/></mask><mask id="q" fill="#fff"><path d="m.49284697 74.84c-1.033 3.176-.389 6.492 1.435 9l67.36600003 92.713c.787 1.092 1.93 1.945 3.307 2.392 3.443 1.119 7.144-.764 8.263-4.211l22.68-69.799c7.805-24.022 8.727-40.857 2.461-56.365l-10.32-25.54-70.876-23.03z" fill="#fff" fill-rule="evenodd"/></mask><mask id="r" fill="#fff"><path d="m0 57.396c33.895-3.694 73.64-2.22 103.587 20.243 1.073-10.859-.157-20.179-3.746-29.065l-9.018-22.326c-3.382-2.206-6.906-4.272-10.536-6.217l-61.634-20.031z" fill="#fff" fill-rule="evenodd"/></mask><mask id="s" fill="#fff"><path d="m97.3230865.54209928c5.5189995-1.794 11.4269995 1.008 13.5879995 6.29l48.395 119.77599972c-6.834-16.911-27.706-31.1899997-51.872-39.0429997l-103.72399954-33.702c-2.269-.736-3.714-2.848-3.704-5.112l-.00608646-12.718c-.01291354-2.263 1.44108646-4.354 3.70908646-5.094z" fill="#fff" fill-rule="evenodd"/></mask><mask id="t" fill="#fff"><path d="m3.671.542-3.671 1.192c4.777 29.056 9.434 57.328 13.969 85.892 24.087 7.865 44.869 22.115 51.685 38.982l-48.396-119.776c-1.718-4.201-5.805-6.832-10.182-6.832-1.128 0-2.274.174-3.405.542" fill="#fff" fill-rule="evenodd"/></mask><mask id="u" fill="#fff"><path d="m71.284.14-27.48 1.922-43.804 60.29 63.662 46.254c2.703 1.964 6.055 2.376 9.002 1.416l108.993-35.419c1.282-.41 2.447-1.234 3.298-2.406 2.128-2.928 1.48-7.031-1.451-9.161l-59.374-43.138c-18.803-13.661-33.618-19.898-48.863-19.898-1.323 0-2.651.047-3.983.14" fill="#fff" fill-rule="evenodd"/></mask><mask id="v" fill="#fff"><path d="m71.286.139-24.018 1.677c-3.144 2.535-6.198 5.248-9.17 8.099l-38.098 52.428 48.824 35.477c6.962-33.378 20.646-70.722 51.263-92.262-8.606-3.767-16.653-5.558-24.826-5.558-1.321 0-2.645.046-3.975.139" fill="#fff" fill-rule="evenodd"/></mask><mask id="w" fill="#fff"><path d="m139.069 0c-18.195 1.274-38.226 16.711-53.161 37.268l-64.106 88.233c-1.402 1.931-3.857 2.652-6.007 1.943l-12.096-3.924c-2.157-.688-3.697-2.716-3.699-5.102l.018-98.426c0-5.803 4.49-10.555 10.182-10.979z" fill="#fff" fill-rule="evenodd"/></mask><mask id="x" fill="#fff"><path d="m10.182 9.013c-5.691.424-10.182 5.176-10.182 10.979v3.86c29.11 4.436 57.439 8.744 86.005 13.258 14.924-20.478 34.898-35.839 53.047-37.11z" fill="#fff" fill-rule="evenodd"/></mask><mask id="y" fill="#fff"><path d="m101.16 1.253-59.375 43.138c-20.435 14.846-31.075 27.925-35.121 44.153l-6.664 26.729 43.803 60.291 63.664-46.255c2.701-1.962 4.128001-5.022 4.128001-8.123l-.006001-114.602c.006001-1.347-.417-2.708-1.268-3.879-1.283-1.767-3.283-2.705-5.312-2.705-1.336 0-2.685.407-3.849 1.253" fill="#fff" fill-rule="evenodd"/></mask><mask id="z" fill="#fff"><path d="m5.827 25.716-5.827 23.362c1.439 3.77 3.076 7.515 4.868 11.221l38.091 52.435 48.827-35.47c-29.593-16.936-60.881-41.489-71.905-77.264-7.25 8.154-11.734 16.417-14.054 25.716" fill="#fff" fill-rule="evenodd"/></mask><mask id="A" fill="#fff"><path d="m31.565929 0c-4.412 17.698 4.08 41.519 19.016 62.075l64.105 88.235c1.402 1.929 1.331 4.488-.008 6.313l-7.47 10.291c-1.322 1.84-3.726 2.678-5.995 1.942l-93.60299997-30.432c-5.52-1.794-8.652-7.532-7.296-13.076z" fill="#fff" fill-rule="evenodd"/></mask><mask id="B" fill="#fff"><path d="m.31526354 125.347c-1.357 5.544 1.776 11.283 7.296 13.077l3.66999996 1.194c13.215-26.315 26.066-51.926 39.186-77.7-14.864-20.521-23.301-44.265-18.901-61.918z" fill="#fff" fill-rule="evenodd"/></mask><mask id="C" fill="#fff"><path d="m4.53454267.33c-3.445 1.118-5.331 4.817-4.212 8.263l22.67900003 69.8c7.805 24.023 16.956 38.183 31.14 47.046l23.361 14.598 70.8770003-23.03-24.319-74.839c-1.031-3.176-3.499-5.479-6.45-6.438l-108.99500033-35.408c-.642-.212-1.322-.322-2.014-.322-.686 0-1.383.108-2.067.33" fill="#fff" fill-rule="evenodd"/></mask><mask id="D" fill="#fff"><path d="m0 44.509c5.514 9.416 11.988 16.234 20.116 21.313l20.417 12.762c4.033-.203 8.095-.602 12.175-1.161l61.641-20.024-18.646-57.399c-25.251 22.911-58.272 45.08-95.703 44.509" fill="#fff" fill-rule="evenodd"/></mask><mask id="E" fill="#fff"><path d="m168.639.26369771c2.269-.737 4.681.12 6.002 1.958l7.479 10.28599999c1.342 1.823 1.395 4.369-.006 6.301l-57.867 79.617c-3.412 4.6950003-9.837 5.9000003-14.691 2.8980003l-109.556-68.4560003c15.47 9.665 40.748 8.949 64.914 1.098z" fill="#fff" fill-rule="evenodd"/></mask><mask id="F" fill="#fff"><path d="m109.555 68.456c4.854 3.003 11.279 1.797 14.691-2.898l2.269-3.122c-20.943-20.698-41.329-40.835-61.787-61.278-24.109 7.793-49.299 8.483-64.728-1.158z" fill="#fff" fill-rule="evenodd"/></mask><g fill="none" fill-rule="evenodd"><path d="m76.727 0c-3.34 0-6.295 1.636-8.116 4.146l-67.358 92.719c-.795 1.085-1.253 2.436-1.253 3.884 0 3.621 2.935 6.558 6.557 6.558h73.392c25.258 0 41.554-4.325 54.366-15.077l21.101-17.706.002-74.524z" fill="url(#b)" mask="url(#m)" transform="translate(102.530543 394.184)"/><path d="m12.758 104.773c10.659-2.336 19.143-6.385 26.486-12.545l18.446-15.477c1.053-3.898 1.929-7.884 2.657-11.937l.005-64.811-60.352-.003c13.988 31.096 24.868 69.35 12.758 104.773" mask="url(#n)" transform="translate(197.598543 394.195)"/><g transform="translate(236.845543 306.649649)"><path d="m42.9047 2.21965087c-1.404-1.929-3.841-2.665-5.99-1.953l-12.094 3.935c-2.156.69-3.718 2.718-3.718 5.102v109.06300013c0 25.41-7.131 49.673-21.102 61.398l98.96-83.0380001c4.355-3.69 5.194-10.173 1.783-14.868z" fill="#000"/><path d="m42.905 2.21935087c-1.405-1.928-3.841-2.665-5.991-1.953l-12.093 3.936c-2.157.689-3.718 2.718-3.718 5.101v109.06400013c0 25.409-7.131 49.673-21.103 61.397l98.96-83.0380001c4.356-3.689 5.195-10.173 1.784-14.868z" fill="url(#d)" mask="url(#o)"/></g><path d="m21.103 39.826c-.036 25.337-7.167 49.508-21.103 61.202l98.96-83.037c4.356-3.69 5.194-10.174 1.783-14.869l-2.267-3.122c-26.159 13.521-51.609 26.686-77.373 39.826" mask="url(#p)" transform="translate(236.845543 385.386)"/><g transform="translate(182.479443 425.0168)"><path d="m75.469 0c0 25.409-7.905 48.899-21.878 60.624-12.811 10.752-28.333 15.851-53.591 15.851 25.258 0 41.608-4.275 54.418-15.026 13.974-11.724 21.051-36.04 21.051-61.449" fill="#677784"/><path d="m75.469 0c0 25.409-7.905 48.899-21.878 60.624-12.811 10.752-28.333 15.851-53.591 15.851 25.258 0 41.608-4.275 54.418-15.026 13.974-11.724 21.051-36.04 21.051-61.449" fill="#000"/></g><path d="m.49284697 74.84c-1.033 3.176-.389 6.492 1.435 9l67.36600003 92.713c.787 1.092 1.93 1.945 3.307 2.392 3.443 1.119 7.144-.764 8.263-4.211l22.68-69.799c7.805-24.022 8.727-40.857 2.461-56.365l-10.32-25.54-70.876-23.03z" fill="url(#e)" mask="url(#q)" transform="translate(342.844696 314.463)"/><path d="m0 57.396c33.895-3.694 73.64-2.22 103.587 20.243 1.073-10.859-.157-20.179-3.746-29.065l-9.018-22.326c-3.382-2.206-6.906-4.272-10.536-6.217l-61.634-20.031z" mask="url(#r)" transform="translate(349.015543 314.466)"/><g transform="translate(289.543056 236.424901)"><path d="m3.70908646 30.9394993c-2.268.739-3.722 2.83-3.70908646 5.094l.00608646 12.718c-.01 2.263 1.435 4.376 3.704 5.112l103.72499954 33.702c24.166 7.853 45.038 22.1319997 51.872 39.0429997l-48.396-119.77599972c-2.161-5.283-8.068-8.084-13.5879995-6.29z" fill="#000"/><path d="m3.70908646 30.9390993c-2.268.74-3.722 2.831-3.70908646 5.094l.00608646 12.718c-.01 2.264 1.435 4.376 3.704 5.112l103.72399954 33.702c24.166 7.853 45.038 22.1319997 51.872 39.0429997l-48.395-119.77599972c-2.161-5.282-8.069-8.084-13.5879995-6.29z" fill="url(#f)" mask="url(#s)" transform="translate(.0004)"/></g><path d="m3.671.542-3.671 1.192c4.777 29.056 9.434 57.328 13.969 85.892 24.087 7.865 44.869 22.115 51.685 38.982l-48.396-119.776c-1.718-4.201-5.805-6.832-10.182-6.832-1.128 0-2.274.174-3.405.542" mask="url(#t)" transform="translate(383.195543 236.425)"/><g transform="translate(396.977743 323.9904)"><path d="m0 0c24.166 7.853 44.063 22.63 50.897 39.541 6.266 15.507 6.319 31.844-1.487 55.867 7.806-24.023 8.793-40.892 2.527-56.398-6.833-16.913-27.771-31.157-51.937-39.01" fill="#677784"/><path d="m0 0c24.166 7.853 44.063 22.63 50.897 39.541 6.266 15.507 6.319 31.844-1.487 55.867 7.806-24.023 8.793-40.892 2.527-56.398-6.833-16.913-27.771-31.157-51.937-39.01" fill="#000"/></g><path d="m71.284.14-27.48 1.922-43.804 60.29 63.662 46.254c2.703 1.964 6.055 2.376 9.002 1.416l108.993-35.419c1.282-.41 2.447-1.234 3.298-2.406 2.128-2.928 1.48-7.031-1.451-9.161l-59.374-43.138c-18.803-13.661-33.618-19.898-48.863-19.898-1.323 0-2.651.047-3.983.14" fill="url(#g)" mask="url(#u)" transform="translate(325.792543 123.194)"/><path d="m71.286.139-24.018 1.677c-3.144 2.535-6.198 5.248-9.17 8.099l-38.098 52.428 48.824 35.477c6.962-33.378 20.646-70.722 51.263-92.262-8.606-3.767-16.653-5.558-24.826-5.558-1.321 0-2.645.046-3.975.139" mask="url(#v)" transform="translate(325.798543 123.19)"/><g transform="translate(258.007543 123.334)"><path d="m.0005 118.4181c.002 2.386 1.541 4.414 3.698 5.102l12.097 3.924c2.149.709 4.604-.012 6.007-1.943l64.105-88.233c14.936-20.557 34.966-35.995 53.161-37.268l-128.869 9.013c-5.691.424-10.181 5.176-10.181 10.979z" fill="#000"/><path d="m0 118.418c.002 2.386 1.542 4.414 3.699 5.102l12.096 3.924c2.15.709 4.605-.012 6.007-1.943l64.106-88.233c14.935-20.557 34.966-35.994 53.161-37.268l-128.869 9.013c-5.692.424-10.182 5.176-10.182 10.979z" fill="url(#h)" mask="url(#w)"/></g><path d="m10.182 9.013c-5.691.424-10.182 5.176-10.182 10.979v3.86c29.11 4.436 57.439 8.744 86.005 13.258 14.924-20.478 34.898-35.839 53.047-37.11z" mask="url(#x)" transform="translate(258.024543 123.334)"/><g transform="translate(343.915243 123.122613)"><path d="m0 37.479087c14.936-20.557 35.138-34.91399997 53.334-36.18799997 16.685-1.166 32.238 3.832 52.673 18.67799997-20.435-14.84599997-36.174-20.99799997-52.857-19.82999997-18.198 1.273-38.214 16.78299997-53.15 37.33999997" fill="#677784"/><path d="m0 37.479087c14.936-20.557 35.138-34.91399997 53.334-36.18799997 16.685-1.166 32.238 3.832 52.673 18.67799997-20.435-14.84599997-36.174-20.99799997-52.857-19.82999997-18.198 1.273-38.214 16.78299997-53.15 37.33999997" fill="#000"/></g><path d="m101.16 1.253-59.375 43.138c-20.435 14.846-31.075 27.925-35.121 44.153l-6.664 26.729 43.803 60.291 63.664-46.255c2.701-1.962 4.128001-5.022 4.128001-8.123l-.006001-114.602c.006001-1.347-.417-2.708-1.268-3.879-1.283-1.767-3.283-2.705-5.312-2.705-1.336 0-2.685.407-3.849 1.253" fill="url(#i)" mask="url(#y)" transform="translate(146.445543 10)"/><path d="m5.827 25.716-5.827 23.362c1.439 3.77 3.076 7.515 4.868 11.221l38.091 52.435 48.827-35.47c-29.593-16.936-60.881-41.489-71.905-77.264-7.25 8.154-11.734 16.417-14.054 25.716" mask="url(#z)" transform="translate(147.279543 72.819)"/><g transform="translate(121.543614 98.544)"><path d="m101.213429 168.8556c2.27.736 4.674-.102 5.995-1.941l7.471-10.291c1.339-1.826 1.41-4.384.008-6.314l-64.106-88.234c-14.935-20.557-23.428-44.377-19.015-62.075l-31.25099997 125.347c-1.357 5.544 1.776 11.282 7.295 13.076z" fill="#000"/><path d="m101.213929 168.856c2.269.736 4.673-.102 5.995-1.942l7.47-10.291c1.339-1.825 1.41-4.384.008-6.313l-64.105-88.235c-14.936-20.556-23.428-44.377-19.016-62.075l-31.25099997 125.348c-1.356 5.544 1.776 11.282 7.296 13.076z" fill="url(#j)" mask="url(#A)"/></g><path d="m.31526354 125.347c-1.357 5.544 1.776 11.283 7.296 13.077l3.66999996 1.194c13.215-26.315 26.066-51.926 39.186-77.7-14.864-20.521-23.301-44.265-18.901-61.918z" mask="url(#B)" transform="translate(121.543279 98.544)"/><g transform="translate(151.877023 54.3903)"><path d="m20.2482193 106.229c-14.93600002-20.557-22.34700002-44.207-17.93600002-61.905 4.046-16.229 13.60700002-29.477 34.04100002-44.324-20.434 14.847-31.14800002 27.915-35.19300002 44.142-4.413 17.7 4.152 41.53 19.08800002 62.087" fill="#677784"/><path d="m20.2482193 106.229c-14.93600002-20.557-22.34700002-44.207-17.93600002-61.905 4.046-16.229 13.60700002-29.477 34.04100002-44.324-20.434 14.847-31.14800002 27.915-35.19300002 44.142-4.413 17.7 4.152 41.53 19.08800002 62.087" fill="#000"/></g><path d="m4.53454267.33c-3.445 1.118-5.331 4.817-4.212 8.263l22.67900003 69.8c7.805 24.023 16.956 38.183 31.14 47.046l23.361 14.598 70.8770003-23.03-24.319-74.839c-1.031-3.176-3.499-5.479-6.45-6.438l-108.99500033-35.408c-.642-.212-1.322-.322-2.014-.322-.686 0-1.383.108-2.067.33" fill="url(#k)" mask="url(#C)" transform="translate(0 197.47)"/><path d="m0 44.509c5.514 9.416 11.988 16.234 20.116 21.313l20.417 12.762c4.033-.203 8.095-.602 12.175-1.161l61.641-20.024-18.646-57.399c-25.251 22.911-58.272 45.08-95.703 44.509" mask="url(#D)" transform="translate(34.016543 257.086)"/><g transform="translate(54.140543 290.041102)"><path d="m182.1136 18.8086977c1.401-1.932 1.349-4.478.007-6.301l-7.48-10.28599999c-1.321-1.838-3.733-2.695-6.002-1.958l-103.724 33.70199999c-24.166 7.851-49.445 8.568-64.914-1.097l109.555 68.4560003c4.855 3.002 11.28 1.797 14.692-2.8990003z" fill="#000"/><path d="m182.114 18.8086977c1.401-1.932 1.348-4.478.006-6.301l-7.479-10.28599999c-1.321-1.838-3.733-2.695-6.002-1.958l-103.725 33.70199999c-24.166 7.851-49.444 8.567-64.914-1.098l109.556 68.4560003c4.854 3.002 11.279 1.797 14.691-2.8980003z" fill="url(#l)" mask="url(#E)" transform="translate(0 .0002)"/></g><path d="m109.555 68.456c4.854 3.003 11.279 1.797 14.691-2.898l2.269-3.122c-20.943-20.698-41.329-40.835-61.787-61.278-24.109 7.793-49.299 8.483-64.728-1.158z" mask="url(#F)" transform="translate(54.141543 322.909)"/><g transform="translate(23.001943 275.862)"><path d="m96.053 48.145c-24.166 7.851-48.949 7.591-64.419-2.073-14.183-8.864-23.829-22.048-31.634-46.072 7.805 24.024 16.922 38.251 31.106 47.112 15.469 9.667 40.781 8.884 64.947 1.033" fill="#677784"/><path d="m96.053 48.145c-24.166 7.851-48.949 7.591-64.419-2.073-14.183-8.864-23.829-22.048-31.634-46.072 7.805 24.024 16.922 38.251 31.106 47.112 15.469 9.667 40.781 8.884 64.947 1.033" fill="#000"/><path d="m66.6721 225.6177h2.9v-10.074h-2.435l-3.43 3.98-3.387-3.98h-2.445v10.074h2.899v-5.465l2.707 3.231h.488l2.703-3.231zm-13.99-7.145v7.145h-2.944v-7.145h-2.82v-2.929h8.592v2.929z" fill="#677784"/></g></g></svg>