<svg height="20" viewBox="0 0 20 20" width="20" xmlns="http://www.w3.org/2000/svg"><g fill="none" fill-rule="evenodd"><rect fill="#8e8e8e" height="16" rx="2.5" stroke="#8e8e8e" width="10" x="4.8" y="2.5"/><path d="m5.55 3.25h8.5v14.5h-8.5z" fill="#6ca4c6" stroke="#fff" stroke-width=".5"/><path d="m6.37424927 5.4551254c-.10772379.24456048-.23523371.46967699-.38296932.67664617-.20137782.28215154-.36626125.47745443-.4933315.58590807-.19698072.17801925-.40803161.26918925-.63403199.2743744-.16224529 0-.35790709-.0453692-.58566612-.137403-.22850645-.09160279-.43850213-.1369714-.63051449-.1369714-.2013777 0-.41735316.04536861-.64836587.1369714-.23136473.0920338-.41774891.13999558-.56025229.14474853-.21672287.00907373-.43274207-.08468885-.64836586-.28171993-.13762262-.11795956-.30976095-.32017579-.51597537-.60664868-.22125158-.30591621-.40315105-.66065852-.54565437-1.06509068-.15261615-.43683865-.2291221-.85985051-.2291221-1.26938115 0-.46911537.10315113-.87372041.30976112-1.21277808.16237727-.27234343.37839662-.48717649.64876145-.64488785.27036508-.15771112.56249468-.23807904.87709246-.24322097.17213821 0 .39787488.05232558.67839658.155162.27973035.10318206.45934348.15550764.53809172.15550764.05887438 0 .2584054-.06118344.59665842-.18316106.31987412-.11312005.58984326-.1599583.81100697-.14150826.59929662.04752947 1.04953847.27968915 1.34896694.69794805-.53598122.31913853-.80111394.76613109-.79583772 1.33955193.0048366.44664687.16972003.8183269.49377105 1.11344161.14685614.13697093.31086039.24283194.49333101.31801494-.03957149.11277429-.08134197.22079575-.12575072.32449632zm-1.37446867-5.31508554c0 .35007992-.13014824.67694855-.38956476.97949476-.31305903.35966827-.69171927.56750137-1.10234523.53470614-.00523224-.04199879-.00826614-.08620107-.00826614-.13265022 0-.33607636.14887886-.69574445.41326416-.98982197.1319945-.1488966.29986791-.27270211.50344413-.37146411.20313642-.09728841.39528072-.151091.57599286-.16030446.00527664.04680022.00747498.09360338.00747498.14003532z" fill="#000" fill-rule="nonzero" transform="translate(6.2 7)"/></g></svg>