<svg height="20" viewBox="0 0 20 20" width="20" xmlns="http://www.w3.org/2000/svg" xmlns:xlink="http://www.w3.org/1999/xlink"><radialGradient id="a" cx="49.996327%" cy="49.997355%" gradientTransform="matrix(1 0 0 .992899 0 .00355)" r="49.996327%"><stop offset="0" stop-color="#fff" stop-opacity=".1"/><stop offset="1" stop-color="#fff" stop-opacity="0"/></radialGradient><g fill="none" transform="translate(2.9 2)"><path d="m3.32057971 12.7229197-2.69913043-2.7188321c-.32-.33167884-.51942029-.79883213-.51942029-1.25547446 0-.21138686.11826087-.54189781.20753623-.73226278l2.4915942-5.22861313z" fill="#01579b"/><path d="m12.5611594 3.31094891-2.69913041-2.71883212c-.23536232-.23824818-.72695653-.52321168-1.14202899-.52321168-.35710145 0-.70724638.07240876-.93449275.20905109l-4.98318841 2.50978103z" fill="#40c4ff"/><path d="m6.53913043 15.9649635h6.54144927v-2.8239416l-4.87999999-1.5684672-4.46376812 1.5684672z" fill="#40c4ff"/><path d="m2.80231884 11.259562c0 .8385402.10434783 1.0452555.51942029 1.4645256l.41507246.4181022h9.34376811l-4.56811593-5.22861316-5.71014493-5.12467153z" fill="#29b6f6"/><path d="m11.1072464 2.78773723h-8.30608698l10.27826088 10.35328467h2.8034783v-6.48408759l-3.3217392-3.3459854c-.4660869-.47182482-.8811594-.52321168-1.453913-.52321168z" fill="#01579b"/><path d="m3.42492754 12.8280292c-.41507247-.420438-.51942029-.8338686-.51942029-1.5684672v-8.36671528l-.10434783-.10510949v8.47065697c.00115942.7357664.00115942.9389781.62376812 1.569635l.31188405.3141606z" fill="#fff" opacity=".2"/><path d="m15.7797101 6.5529927v6.4840876h-2.8034782l.1043478.1039416h2.8034783v-6.48291971z" fill="#263238" opacity=".2"/><path d="m12.5611594 3.31094891c-.5147826-.51854015-.9368116-.52321168-1.5571014-.52321168h-8.20173916l.10434783.10510949h8.09855073c.3084058 0 1.0910145-.05255475 1.555942.41810219z" fill="#fff" opacity=".2"/><path d="m15.7797101 6.5529927-3.2185507-3.24204379-2.69913041-2.71883212c-.23536232-.23824818-.72695653-.52321168-1.14202899-.52321168-.35710145 0-.70724638.07240876-.93449275.20905109l-4.98318841 2.50978103-2.4915942 5.22861313c-.08927536.19036497-.20753623.52087592-.20753623.73226278 0 .45664233.19942029.92379562.51942029 1.25547446l2.48811594 2.4875912c.05913043.0735767.12869565.1483212.21217391.2312409l.10434783.1051095.31188405.3141606 2.69913044 2.7188321.10434783.1051095h6.4371014.1043479v-2.8239416h2.8034782v-.0070073-6.47708031z" fill="url(#a)" opacity=".2"/></g></svg>