<svg height="20" viewBox="0 0 20 20" width="20" xmlns="http://www.w3.org/2000/svg"><g transform="matrix(1 0 0 -1 2.238444 19)"><path d="m10.8279675 17.9793909c-.85456324-.0968628-2.06396974-.83673-2.66447366-1.62812-.34644457-.4534005-.55011198-.8861919-.72648376-1.5374399l-.08818589-.325624.00419933-.3462331c.00419932-.1896039.01469764-.3668422.02519596-.395695.02729564-.0680101.07978724-.0783146.44932811-.0803755.30655095-.0020609.32544793 0 .58790594.0762537.70128779.1999084 1.21570548.5008015 1.58104703.9274101.08818594.1051065.22046474.2452485.28975364.3153194.230963.2225785.5270157.7171972.6907895 1.1458668.1637738.4307305.237262.8305473.2582587 1.3993588l.0125979.3647813-.0545912.0535837c-.0608903.0597664-.0944849.0618274-.3653416.0309137z"/><path d="m10.6326988 13.7194871c-.4157335-.0206092-1.53485446-.325624-2.33902579-.6347607-.48712206-.187543-.48712206-.187543-.5837066-.2040303-.16797313-.0267918-.57950728.0906801-1.28709407.3709641-.37583987.1463247-.76217805.2576139-1.33328667.3853904-.23936171.0515228-.63619821.0577055-.80837066.0103046-.06928892-.0185482-.28765398-.0618274-.4850224-.094802-.42413214-.0741928-.66349384-.1463247-.98264278-.300893-.9637458-.4616442-1.62094065-1.1252576-2.14165733-2.163957-.23096305-.4575223-.40103584-.9047401-.52701568-1.3808106-.1868701-.7068926-.19106943-2.06297229-.00839866-2.88527593.02099664-.10098466.03989362-.22051752.03989362-.26791848 0-.09892375.01889698-.17311656.19526876-.85527822.16377379-.63063888.14697648-.5791161.45982643-1.34989696.43882978-1.08197847.57740761-1.32104419 1.47396416-2.53492099.36744121-.49667965.55431131-.7233799.82516797-.99335929.28345465-.28440577.51231803-.44927868.8356663-.60590795.36534154-.17517746.52491601-.21433478.86086226-.21234973.43043113 0 .7768757.08663414 1.43617021.35867444.41573348.17105565.44302912.17929929 1.19890818.33180673.22676371.04740097.43673012.04327914.75587906-.00824364.10918253-.01648729.27295632-.04121823.36114221-.0535837.17847145-.02473093.35904256-.08243645.82516798-.26585757.56270996-.22257842.9595465-.32150217 1.37528-.34623311.6047032-.0370964 1.1884098.22670025 1.81201.81406.6361982.60384703 1.2304032 1.4302725 1.8309071 2.54522555.1616741.30089306.4199328.91710557.4640257 1.10258759.018897.07419281.050392.16693382.0734883.20403023.0209966.0370964.0398936.08861919.0398936.11128921 0 .07419281-.1532755.19166476-.4241321.325624-.5102184.25761392-1.0120381.69864896-1.350084 1.1953286-.2414614.35653767-.4850224.89031372-.5459127 1.20563316-.1028835.51934967-.1322788 1.08816121-.0734882 1.48385619.0146976.10304557.0671892.31944127.1175812.48431418.2162654.71513629.3653415 1.00160289.7033874 1.35607969.1028836.1051065.1868701.2019693.1868701.210213 0 .0350355.5144177.4575223.6403976.5255324.0692889.0391573.1574748.0989237.1952687.1360201.1154815.1112892.0986842.1545684-.1910694.488436-.3884379.4472178-.8776596.81406-1.4529675 1.0881612-.3590426.1710557-.6068029.255553-.9532475.325624-.3548432.0741928-.8839586.117472-1.2199048.0989238z"/></g></svg>