<svg height="20" viewBox="0 0 20 20" width="20" xmlns="http://www.w3.org/2000/svg"><g fill="#32de84" transform="translate(1.5 1)"><path d="m1.50476995 6c-.2797094 0-.51703236.11021663-.71211565.3306499s-.29265429.48494655-.29265429.79367253v4.74014447c0 .316454.09754164.5843836.29265429.80485.19508329.2204333.43240625.3306831.71211565.3306831.27950393 0 .51538857-.1102166.70744845-.3306831.19167828-.2204332.28778161-.488396.28778161-.80485v-4.74014447c0-.30875915-.09754165-.57323926-.29265429-.79367253-.19511265-.22043327-.42935349-.3306499-.70257577-.3306499z"/><path d="m10.9593886 1.46535223.7675994-1.2545478c.0503861-.0830563.0324631-.14674624-.0539317-.19153093-.0937787-.03861743-.1658285-.01904935-.2161821.05732095l-.7783337 1.2645768c-.68488023-.26827588-1.40924967-.40265878-2.17310829-.40265878-.76402126 0-1.48845576.13441172-2.1730758.40265878l-.77836617-1.2645768c-.05058128-.0763703-.12263114-.09576547-.21618211-.05732095-.08658994.04498642-.10451296.10847463-.05393168.19153093l.76763189 1.2545478c-.77836618.351678-1.39828772.84145654-1.85953693 1.47040194-.46124921.62929123-.6919714 1.3169697-.6919714 2.06424583h9.99999999c0-.74710321-.2307547-1.43481051-.6919714-2.06424583-.4612817-.6289454-1.0776252-1.11872394-1.84864-1.47040194zm-4.43791351 1.82476011c-.08301184.07371895-.18215765.11040551-.2974049.11040551-.11547494 0-.21260401-.03668656-.29184259-.11040551-.07923858-.07337312-.11885787-.16086754-.11885787-.26331901 0-.10210565.03961929-.18977298.11885787-.26331901.07923858-.07337312.17659534-.11005969.29184259-.11005969s.21439306.03668657.2974049.11005969c.08281668.07371894.12442019.16121336.12442019.26331901-.0002277.10227855-.04179868.18994589-.12442019.26331901zm4.55673891 0c-.0794013.07371895-.176758.11040551-.2918101.11040551-.1155075 0-.2146208-.03668656-.29747-.11040551-.0829793-.07337312-.1243876-.16086754-.1243876-.26331901 0-.10210565.0414083-.18977298.1243876-.26331901.0828492-.07337312.1819625-.11005969.29747-.11005969.1152472 0 .2123763.03668657.2918101.11005969.0793036.07371894.1188578.16121336.1188578.26331901 0 .10227855-.0395867.18994589-.1188578.26331901z"/><path d="m3.50000001 13.2259391c0 .3330368.11612966.6149527.34842177.8463027.23248878.2313499.51555279.3470085.84971648.3470085h.80618834l.01104592 2.4631406c0 .3110345.10891868.5751593.32675604.7921458.21783736.2169864.4794323.3254633.78432594.3254633.3121374 0 .57730505-.1084769.79517519-.3254633.21787014-.2169865.32678882-.4810786.32678882-.7921458v-2.4629121h1.50329411v2.4629121c0 .3110345.1088859.5751593.32675604.7921458.21787013.2169864.48280834.3254633.79517524.3254633.3121374 0 .577305-.1084769.7951751-.3254633.2178702-.2169865.3267561-.4810786.3267561-.7921458v-2.4629121h.8170704c.326756 0 .6061817-.1156912.8389-.3470412.2322593-.2313499.3484545-.5132658.3484545-.84627v-7.2261676h-9.99999999z"/><path d="m15.4951562 6c-.2732797 0-.5073685.10859141-.7025012.32517721-.1951033.21698381-.292655.48352034-.292655.79914522v4.74014447c0 .316454.0975223.5843836.292655.80485.1951327.2204665.4293976.3306831.7025012.3306831.279562 0 .5170561-.1102166.7121888-.3306831.1951327-.2204664.292655-.488396.292655-.80485v-4.74014447c0-.31565805-.0975223-.58216141-.292655-.79914522-.1951327-.2165858-.4326268-.32517721-.7121888-.32517721z"/></g></svg>