<svg height="16" viewBox="0 0 16 16" width="16" xmlns="http://www.w3.org/2000/svg" xmlns:xlink="http://www.w3.org/1999/xlink"><linearGradient id="a" x1="50%" x2="50%" y1="0%" y2="100%"><stop offset="0" stop-color="#f5ca90"/><stop offset="1" stop-color="#e8ae66"/></linearGradient><g fill="none" fill-rule="evenodd"><circle cx="8" cy="8" fill="url(#a)" r="6.65" stroke="#e8ae66" stroke-width=".7"/><path d="m8.48 10.05c.76 0 1.4-.57 1.4-1.53 0-.49-.14-.88-.42-1.15s-.61-.4-.99-.4c-.39 0-.72.14-1 .41-.29.27-.43.65-.43 1.13 0 .97.65 1.54 1.44 1.54zm.1-4.01c.62 0 1.16.22 1.63.66s.7 1.04.7 1.81c0 .75-.23 1.35-.68 1.8-.45.46-.99.69-1.61.69-.69 0-1.23-.23-1.6-.69v.59h-1.02v-6.58h1.04v2.43c.37-.47.88-.71 1.54-.71z" fill="#5c5151" fill-rule="nonzero"/></g></svg>