<svg height="12" viewBox="0 0 24 12" width="24" xmlns="http://www.w3.org/2000/svg"><g fill="#c74027" fill-rule="evenodd"><path d="m9.6283377 7.84615389v.46153842c0 .32030769-.05516888.62584612-.13371428.92307695h1.48394798v1.38461534h-2.19833764c-.6863376.8363077-1.72238959 1.3846154-2.89215582 1.3846154s-2.20581819-.5483077-2.89215585-1.3846154h-2.30306493v-1.38461534h1.58867533c-.07854546-.29723083-.13371429-.60276926-.13371429-.92307695v-.46153842h-1.45496104v-1.38461543h1.45496104v-.92307692c0-.15784615.02805195-.3083077.04768831-.46153847h-1.50264935v-1.38461538h1.97766234c.3571948-.60276923.87896103-1.09292308 1.50825974-1.41692308l-1.31376624-1.296.9921039-.97938461 1.88509091 1.86092307c.04955844-.00184614.04394805-.00923076.09350649-.00923076.01776623 0 .08509081.00738468.10285705.00830776l1.87574032-1.86000007.99210395.97938461-1.27636366 1.26c.6592208.32215385 1.20529871.828 1.57558443 1.45292308h1.87293501v1.38461538h-1.39792204c.01963637.15323077.04768834.30369232.04768834.46153847v.92307692h1.3502337v1.38461543zm-5.3354807-2.70329675v1.28571429h3.0857142v-1.28571429zm0 2.57142857v1.28571429h3.0857142v-1.28571429z" transform="translate(12.1)"/><g transform="matrix(1 0 0 -1 0 12)"><rect height="1.92" rx=".96" width="12" y="10.08"/><rect height="5.28" rx="1" width="3" x="4.5" y="3.84"/><path d="m4.5 4.5145987h-2.35823078l3.85823078-3.97726031 4.0787409 3.97726031z" stroke="#c74027" stroke-linejoin="round"/></g></g></svg>