<svg height="12" viewBox="0 0 24 12" width="24" xmlns="http://www.w3.org/2000/svg"><g fill="#c74027" fill-rule="evenodd"><g transform="matrix(1 0 0 -1 0 12)"><rect height="1.92" rx=".96" width="12" y="10.08"/><rect height="5.28" rx="1" width="3" x="4.5" y="3.84"/><path d="m4.5 4.5145987h-2.35823078l3.85823078-3.97726031 4.0787409 3.97726031z" stroke="#c74027" stroke-linejoin="round"/></g><path d="m6.00043 0c-3.01488 0-5.040469 1.11673-5.040469 2.15953 0 1.04328 2.025589 2.16047 5.040469 2.16047 3.01464 0 5.03957-1.11719 5.03957-2.16047 0-1.0428-2.02493-2.15953-5.03957-2.15953zm-5.040469 3.26625v1.32984c0 1.02576 2.025589 2.12391 5.040469 2.12391 3.01464 0 5.03957-1.09815 5.03957-2.12391v-1.32984c-.8813.90096-2.78093 1.53375-5.03957 1.53375-2.25912 0-4.15895-.63303-5.040469-1.53375zm0 2.47219v1.26843c0 1.02552 2.025589 2.11313 5.040469 2.11313 3.01464 0 5.03957-1.08784 5.03957-2.11313v-1.26843c-.8813.90048-2.78093 1.46156-5.03957 1.46156-2.25912 0-4.15895-.56108-5.040469-1.46156zm0 2.41078v1.24687c0 1.02551 2.025589 2.12391 5.040469 2.12391 3.01464 0 5.03957-1.0984 5.03957-2.12391v-1.24687c-.8813.90072-2.78093 1.45078-5.03957 1.45078-2.25912 0-4.15895-.55006-5.040469-1.45078z" fill-rule="nonzero" transform="translate(12)"/></g></svg>