<?xml version="1.0" encoding="UTF-8"?>
<svg width="12px" height="12px" viewBox="0 0 12 12" version="1.1" xmlns="http://www.w3.org/2000/svg" xmlns:xlink="http://www.w3.org/1999/xlink">
    <!-- Generator: Sketch 57.1 (83088) - https://sketch.com -->
    <title>ic_down_cache</title>
    <desc>Created with Sketch.</desc>
    <g id="ic_down_cache" stroke="none" stroke-width="1" fill="none" fill-rule="evenodd">
        <g id="ic_down" transform="translate(0.000000, 0.200000)" fill="#C74027" fill-rule="nonzero">
            <path d="M6.00043,0 C2.98555,0 0.959961,1.11673 0.959961,2.15953 C0.959961,3.20281 2.98555,4.32 6.00043,4.32 C9.01507,4.32 11.04,3.20281 11.04,2.15953 C11.04,1.11673 9.01507,0 6.00043,0 Z M0.959961,3.26625 L0.959961,4.59609 C0.959961,5.62185 2.98555,6.72 6.00043,6.72 C9.01507,6.72 11.04,5.62185 11.04,4.59609 L11.04,3.26625 C10.1587,4.16721 8.25907,4.8 6.00043,4.8 C3.74131,4.8 1.84148,4.16697 0.959961,3.26625 Z M0.959961,5.73844 L0.959961,7.00687 C0.959961,8.03239 2.98555,9.12 6.00043,9.12 C9.01507,9.12 11.04,8.03216 11.04,7.00687 L11.04,5.73844 C10.1587,6.63892 8.25907,7.2 6.00043,7.2 C3.74131,7.2 1.84148,6.63892 0.959961,5.73844 Z M0.959961,8.14922 L0.959961,9.39609 C0.959961,10.4216 2.98555,11.52 6.00043,11.52 C9.01507,11.52 11.04,10.4216 11.04,9.39609 L11.04,8.14922 C10.1587,9.04994 8.25907,9.6 6.00043,9.6 C3.74131,9.6 1.84148,9.04994 0.959961,8.14922 Z" id="Shape"></path>
        </g>
    </g>
</svg>