<svg height="16" viewBox="0 0 16 16" width="16" xmlns="http://www.w3.org/2000/svg"><linearGradient id="a" x1="50%" x2="50%" y1="0%" y2="100%"><stop offset="0" stop-color="#f5ca90"/><stop offset="1" stop-color="#e8ae66"/></linearGradient><g fill="none" fill-rule="evenodd"><circle cx="8" cy="8" fill="url(#a)" r="6.65" stroke="#e8ae66" stroke-width=".7"/><path d="m7.63 10.05c.39 0 .72-.14 1.01-.41s.43-.64.43-1.13c0-.48-.14-.86-.42-1.13-.29-.27-.62-.41-1.01-.41-.79 0-1.41.56-1.41 1.55 0 .97.61 1.53 1.4 1.53zm2.48-5.73v6.58h-1.02v-.61c-.43.47-.97.71-1.63.71-.62 0-1.15-.23-1.59-.68-.45-.45-.67-1.05-.67-1.81 0-.77.24-1.37.72-1.81.47-.44 1.02-.66 1.65-.66.6 0 1.18.23 1.5.63v-2.35z" fill="#5c5151" fill-rule="nonzero"/></g></svg>