<svg height="12" viewBox="0 0 12 12" width="12" xmlns="http://www.w3.org/2000/svg"><path d="m6.00043 0c-3.01488 0-5.040469 1.11673-5.040469 2.15953 0 1.04328 2.025589 2.16047 5.040469 2.16047 3.01464 0 5.03957-1.11719 5.03957-2.16047 0-1.0428-2.02493-2.15953-5.03957-2.15953zm-5.040469 3.26625v1.32984c0 1.02576 2.025589 2.12391 5.040469 2.12391 3.01464 0 5.03957-1.09815 5.03957-2.12391v-1.32984c-.8813.90096-2.78093 1.53375-5.03957 1.53375-2.25912 0-4.15895-.63303-5.040469-1.53375zm0 2.47219v1.26843c0 1.02552 2.025589 2.11313 5.040469 2.11313 3.01464 0 5.03957-1.08784 5.03957-2.11313v-1.26843c-.8813.90048-2.78093 1.46156-5.03957 1.46156-2.25912 0-4.15895-.56108-5.040469-1.46156zm0 2.41078v1.24687c0 1.02551 2.025589 2.12391 5.040469 2.12391 3.01464 0 5.03957-1.0984 5.03957-2.12391v-1.24687c-.8813.90072-2.78093 1.45078-5.03957 1.45078-2.25912 0-4.15895-.55006-5.040469-1.45078z" fill="#c74027" transform="translate(0 .2)"/></svg>