<?xml version="1.0" encoding="UTF-8"?>
<svg width="12px" height="12px" viewBox="0 0 12 12" version="1.1" xmlns="http://www.w3.org/2000/svg" xmlns:xlink="http://www.w3.org/1999/xlink">
    <title>ic_map_local</title>
    <g id="ic_map_local" stroke="none" stroke-width="1" fill="none" fill-rule="evenodd">
        <g id="32316511" transform="translate(-0.000000, 0.200000)" fill-rule="nonzero">
            <path d="M2.91474889,0.221314519 C3.10060418,0.151863333 3.28107944,0.0679839074 3.46938019,0.00611366074 C3.465712,3.36275795 3.46840201,6.71940224 3.46791292,10.0762911 C2.31292013,10.5416629 1.15548188,11.0009211 0,11.4653148 C0.00269001072,8.10524686 -0.00244546429,4.74517892 0.00269001072,1.38535552 C0.974272975,0.999461257 1.94438866,0.609898795 2.91474889,0.221314519" id="Shape" fill="#C75450"></path>
            <path d="M4.2842089,10.0755574 C4.28812164,6.71744587 4.28396435,3.35908975 4.28640982,0.000733639288 C5.43700077,0.459013648 6.58416807,0.926097328 7.73402538,1.38560007 C7.73916085,4.74542346 7.73524811,8.10524686 7.73598175,11.4650703 C6.58563534,11.0014102 5.4345553,10.5392175 4.2842089,10.0755574" id="Shape" fill="#A53632"></path>
            <path d="M8.64518589,1.38511098 C9.7982223,0.9280537 10.9480796,0.462437298 12.0991597,0 C12.0996487,3.3593343 12.101116,6.71891315 12.098426,10.0782475 C10.9466123,10.5399511 9.79602138,11.0043448 8.64371861,11.4645812 C8.64371861,8.10475776 8.64127314,4.74493437 8.64518589,1.38511098" id="Shape" fill="#C75450"></path>
        </g>
    </g>
</svg>