<svg height="16" viewBox="0 0 16 16" width="16" xmlns="http://www.w3.org/2000/svg"><linearGradient id="a" x1="100%" x2="0%" y1="50%" y2="50%"><stop offset="0" stop-color="#cd5c4f"/><stop offset=".369" stop-color="#fe9176"/><stop offset="1" stop-color="#cd5d50"/></linearGradient><g fill="none" fill-rule="evenodd"><path d="m2.25 5.25h11.5v8.5h-11.5z" fill="#adadad" stroke="#999" stroke-width=".5"/><path d="m3.5 6.5h2v5h-2z" fill="url(#a)" transform="matrix(0 -1 1 0 -4.5 13.5)"/><path d="m10.5 6.5h2v5h-2z" fill="url(#a)" transform="matrix(0 -1 1 0 2.5 20.5)"/><path d="m2.25 7.75h11.5v2.5h-11.5z" opacity=".705" stroke="#d4d4d4" stroke-width=".5"/><path d="m7 5h2v9h-2z" fill="url(#a)"/><path d="m6.75 5.25h2.5v8.5h-2.5z" opacity=".7" stroke="#d4d4d4" stroke-width=".5"/><path d="m7.86589627 4.56251653c-2.86242018-.60326799-4.47681635-1.25347892-4.8431885-1.95063279-.54955823-1.04573081.60671229-1.58523998 2.16515476-1.2491197 1.55844247.33612029 2.5784662 1.40973851 2.81213747 2.36167805.23367127.95193953.42427598-1.78840188 3.1444322-2.15069161 1.5464388-.20596569 1.8242863-.05224997 2.0738001.2733852.2287812.29857738.2664394.93041732-.1399397 1.40051686-.2675592.30951266-.8736039.45566498-1.5782926.67408194-.5372055.16650584-1.61817077.38009986-3.24289596.64078205z" stroke="url(#a)" stroke-width="1.1"/></g></svg>