<svg height="16" viewBox="0 0 16 16" width="16" xmlns="http://www.w3.org/2000/svg"><linearGradient id="a" x1="50%" x2="50%" y1="0%" y2="100%"><stop offset="0" stop-color="#f5ca90"/><stop offset="1" stop-color="#e8ae66"/></linearGradient><g fill="none" fill-rule="evenodd"><circle cx="8" cy="8" fill="url(#a)" r="6.65" stroke="#e8ae66" stroke-width=".7"/><path d="m10 8.84999999c0 .47-.18999999.85-.57999999 1.13-.39.28000001-.86.42000001-1.42.42000001-.84 0-1.71-.34-2.2-.94000001l.77-.72c.39.49.89.73 1.52.73.49 0 .86-.21.86-.49-.06-.34-.4-.42-1-.55-.05-.01-.08-.01-.1-.02-.49-.11-.75-.19-1.14-.41-.4-.22-.6-.58-.6-1.09 0-.96.81-1.47 1.89-1.47.67 0 1.26.18 1.75.55l-.59.77c-.33-.27-.71-.41-1.16-.41-.48 0-.84.19-.84.54 0 .37.35.49 1.12.64.43.08.58.11.94.25.18.07.32.15.42.23.19.17.35999999.47.35999999.84z" fill="#5c5151" fill-rule="nonzero"/></g></svg>