<svg height="16" viewBox="0 0 4.2333333 4.2333334" width="16" xmlns="http://www.w3.org/2000/svg"><g transform="translate(-133.3201 -118.12056)"><path d="m135.36669 122.07419c-.11603-.0147-.22418-.0694-.30805-.15611-.0921-.0952-.14137-.2079-.14816-.33913-.013-.25295.15587-.47561.40772-.53733.0336-.008.0515-.0102.11173-.0102.0964-.00039.1608.0135.23358.0501.1786.0899.28645.25546.29408.45131.007.19505-.0883.37063-.2584.47338-.095.0573-.21757.0823-.3325.0678zm-.54386-1.17594c-.0232-.0115-.22732-.21565-.23839-.2384-.007-.0151-.008-.0241-.007-.0695.00098-.0431.003-.0553.0104-.0693.0104-.0199.0912-.0991.14888-.14591.12691-.10294.29372-.18402.45301-.22018.0879-.02.1401-.0253.24663-.0253s.15873.005.24663.0253c.15928.0362.32598.11718.45303.22018.0652.0528.14167.12906.14972.14918.009.0224.0129.10801.006.12953-.007.0207-.21666.23245-.24266.24468-.0236.0111-.0643.0113-.088.00049-.0102-.004-.0282-.0203-.0443-.0383-.0372-.0419-.0955-.0896-.14843-.12153-.23572-.14188-.53444-.11837-.7467.0587-.0211.0176-.0507.0459-.0657.0628-.0161.0181-.0342.0338-.0442.0385-.0236.0107-.0664.0104-.0888-.00098zm-.61343-.61043c-.022-.0112-.23886-.23011-.24436-.24676-.002-.007-.004-.0356-.003-.064.00099-.041.003-.0535.0103-.0673.017-.0327.17214-.17662.27351-.25371.16172-.12299.38042-.23695.57613-.30023.44033-.14234.92056-.12715 1.34597.0427.15788.063.33091.16009.45916.25761.10141.0771.25651.221.27352.25372.007.0137.009.0262.0103.0673.00098.0284-.00049.0563-.003.064-.006.0179-.22711.23987-.24768.24846-.0192.008-.0598.008-.0805-.00049-.0111-.004-.0306-.0216-.0593-.0525-.15099-.16209-.36995-.3008-.59588-.37753-.16432-.0558-.30932-.0794-.48796-.0794-.17865 0-.32364.0236-.48795.0794-.22595.0767-.4449.21544-.59589.37753-.0287.0308-.0482.048-.0592.0525-.0223.009-.065.008-.0838-.00098zm-.61763-.62019c-.0244-.0112-.23118-.22047-.2377-.24071-.003-.009-.004-.0352-.003-.0653.00098-.041.003-.0535.0103-.0673.0129-.0249.14638-.15328.24576-.23645.40876-.34207.89848-.56124 1.42078-.63586.15996-.0229.20378-.0256.40895-.0256.20515 0 .24897.003.40894.0256.52229.0746 1.01203.29379 1.42077.63586.0994.0832.23279.21152.24576.23645.007.0137.009.0263.0102.0673.00099.0302-.00049.0564-.003.0653-.007.0216-.21357.22982-.23912.24099-.0245.0107-.0644.0105-.0886-.00049-.0117-.005-.0429-.0323-.0864-.075-.18514-.18101-.36761-.31221-.59302-.42641-.27888-.14127-.55507-.21916-.88535-.24966-.12331-.0114-.3447-.006-.48695.0116-.27169.0338-.53144.1133-.77783.23812-.22543.11419-.40789.2454-.59302.42642-.0436.0426-.0748.0696-.0864.075-.0238.0108-.0665.0109-.0899.00026z" fill="#afb1b3" stroke-width=".130367"/><g fill="#f00" fill-rule="evenodd" stroke-width=".188767" transform="matrix(.70710678 .70710678 -.70710678 .70710678 124.689072 -60.551589)"><path d="m134.21471 119.94995h2.444132v.574553h-2.444132z"/><path d="m119.01516-135.72404h2.444132v.574553h-2.444132z" transform="rotate(90)"/></g></g></svg>