<svg height="124pt" viewBox="0 0 150 124" width="150pt" xmlns="http://www.w3.org/2000/svg"><path d="m44.24 0h.5c19.62 20.45 40.08 40.07 59.98 60.25 14.58 15.24 29.93 29.73 44.53 44.96-14.39 6.47-29.24 11.93-43.46 18.79h-.57c-19.86-20.71-40.78-40.38-60.72-61.02-9.56-8.92-18.59-18.4-27.6-27.88-5.6-5.21-11.05-10.59-16.9-15.52v-.58c10-3.81 19.75-8.26 29.64-12.36 4.92-2.09 9.92-4.02 14.6-6.64z" fill="#474747"/><path d="m148.64 0h1.36v51.36c-3.55-8.82-8.08-17.72-15.83-23.58-7.71-6.32-17.67-8.78-27.36-10.02 13.91-6 28.08-11.41 41.83-17.76z" fill="#699cd0"/><path d="m0 76.57c5.55 8.3 10.7 17.6 19.77 22.57 6.55 4.29 14.58 4.61 21.69 7.5-13.83 5.61-27.48 11.7-41.46 16.91z" fill="#699cd0"/><g fill="#3474b4"><path d="m105.21 18.32c.4-.14 1.2-.42 1.6-.56 9.69 1.24 19.65 3.7 27.36 10.02 7.75 5.86 12.28 14.76 15.83 23.58v53.51l-.75.34c-14.6-15.23-29.95-29.72-44.53-44.96.15-13.98.39-27.95.49-41.93z"/><path d="m0 19.58c5.85 4.93 11.3 10.31 16.9 15.52 9.01 9.48 18.04 18.96 27.6 27.88.48 14.07.03 28.16.15 42.24-1.06.49-2.12.97-3.19 1.42-7.11-2.89-15.14-3.21-21.69-7.5-9.07-4.97-14.22-14.27-19.77-22.57z"/></g></svg>