<?xml version="1.0" encoding="UTF-8" ?>
<!DOCTYPE svg PUBLIC "-//W3C//DTD SVG 1.1//EN" "http://www.w3.org/Graphics/SVG/1.1/DTD/svg11.dtd">
<svg width="150pt" height="124pt" viewBox="0 0 150 124" version="1.1" xmlns="http://www.w3.org/2000/svg">
<g id="#474747ff">
<path fill="#474747" opacity="1.00" d=" M 44.24 0.00 L 44.74 0.00 C 64.36 20.45 84.82 40.07 104.72 60.25 C 119.30 75.49 134.65 89.98 149.25 105.21 C 134.86 111.68 120.01 117.14 105.79 124.00 L 105.22 124.00 C 85.36 103.29 64.44 83.62 44.50 62.98 C 34.94 54.06 25.91 44.58 16.90 35.10 C 11.30 29.89 5.85 24.51 0.00 19.58 L 0.00 19.00 C 10.00 15.19 19.75 10.74 29.64 6.64 C 34.56 4.55 39.56 2.62 44.24 0.00 Z" />
</g>
<g id="#699cd0ff">
<path fill="#699cd0" opacity="1.00" d=" M 148.64 0.00 L 150.00 0.00 L 150.00 51.36 C 146.45 42.54 141.92 33.64 134.17 27.78 C 126.46 21.46 116.50 19.00 106.81 17.76 C 120.72 11.76 134.89 6.35 148.64 0.00 Z" />
<path fill="#699cd0" opacity="1.00" d=" M 0.00 76.57 C 5.55 84.87 10.70 94.17 19.77 99.14 C 26.32 103.43 34.35 103.75 41.46 106.64 C 27.63 112.25 13.98 118.34 0.00 123.55 L 0.00 76.57 Z" />
</g>
<g id="#3474b4ff">
<path fill="#3474b4" opacity="1.00" d=" M 105.21 18.32 C 105.61 18.18 106.41 17.90 106.81 17.76 C 116.50 19.00 126.46 21.46 134.17 27.78 C 141.92 33.64 146.45 42.54 150.00 51.36 L 150.00 104.87 L 149.25 105.21 C 134.65 89.98 119.30 75.49 104.72 60.25 C 104.87 46.27 105.11 32.30 105.21 18.32 Z" />
<path fill="#3474b4" opacity="1.00" d=" M 0.00 19.58 C 5.85 24.51 11.30 29.89 16.90 35.10 C 25.91 44.58 34.94 54.06 44.50 62.98 C 44.98 77.05 44.53 91.14 44.65 105.22 C 43.59 105.71 42.53 106.19 41.46 106.64 C 34.35 103.75 26.32 103.43 19.77 99.14 C 10.70 94.17 5.55 84.87 0.00 76.57 L 0.00 19.58 Z" />
</g>
</svg>
